<svg width="21" height="20" viewBox="0 0 16 15" fill="none" xmlns="http://www.w3.org/2000/svg">
    <path d="M7.87891 4.96598L10.1693 7.25637L10.1802 7.1364C10.1802 5.93303 9.20225 4.95508 7.99888 4.95508L7.87891 4.96598Z" fill="white"/>
    <path d="M7.99904 3.50135C10.0059 3.50135 11.6346 5.13008 11.6346 7.1369C11.6346 7.60588 11.5401 8.05306 11.3765 8.46386L13.5033 10.5906C14.6012 9.67449 15.4665 8.48932 16.0009 7.1369C14.7394 3.94491 11.6382 1.68359 7.99908 1.68359C6.98111 1.68359 6.00681 1.86536 5.10156 2.19256L6.67212 3.75946C7.08289 3.59951 7.53006 3.50135 7.99904 3.50135Z" fill="white"/>
    <path d="M0.727096 1.51984L2.3849 3.17764L2.71575 3.50849C1.51602 4.44645 0.567144 5.69346 0 7.13674C1.25791 10.3287 4.36264 12.59 7.99819 12.59C9.12522 12.59 10.2013 12.3719 11.1866 11.9756L11.4956 12.2847L13.6151 14.4078L14.5422 13.4844L1.65416 0.592773L0.727096 1.51984ZM4.74802 5.53712L5.8714 6.6605C5.83868 6.81684 5.81687 6.97314 5.81687 7.13674C5.81687 8.34012 6.79482 9.31806 7.99819 9.31806C8.16179 9.31806 8.31813 9.29625 8.47082 9.26353L9.5942 10.3869C9.11067 10.6269 8.57263 10.7723 7.99819 10.7723C5.99138 10.7723 4.36264 9.14356 4.36264 7.13674C4.36264 6.56234 4.50808 6.02427 4.74802 5.53712Z" fill="white"/>
</svg> 